<svg width="27" height="28" viewBox="0 0 27 28" fill="none" xmlns="http://www.w3.org/2000/svg">
<path d="M0.700195 14.8C0.700195 13.4745 1.77471 12.4 3.1002 12.4C4.42568 12.4 5.5002 13.4745 5.5002 14.8V24.4C5.5002 25.7255 4.42568 26.8 3.1002 26.8C1.77471 26.8 0.700195 25.7255 0.700195 24.4V14.8Z" fill="#1267E6"/>
<path d="M7.10019 14.5333V23.2223C7.10019 24.4344 7.785 25.5424 8.86911 26.0845L8.94886 26.1243C9.83754 26.5687 10.8175 26.8 11.811 26.8H20.4768C22.0022 26.8 23.3155 25.7233 23.6147 24.2276L25.5347 14.6276C25.9307 12.6474 24.4162 10.8 22.3968 10.8H16.7002V4.4C16.7002 2.63269 15.2675 1.2 13.5002 1.2C12.6165 1.2 11.9002 1.91634 11.9002 2.8V3.86666C11.9002 5.25143 11.4511 6.59885 10.6202 7.70666L8.3802 10.6933C7.54933 11.8011 7.10019 13.1486 7.10019 14.5333Z" fill="#1267E6"/>
<path d="M0.700195 14.8C0.700195 13.4745 1.77471 12.4 3.1002 12.4C4.42568 12.4 5.5002 13.4745 5.5002 14.8V24.4C5.5002 25.7255 4.42568 26.8 3.1002 26.8C1.77471 26.8 0.700195 25.7255 0.700195 24.4V14.8Z" stroke="#1267E5"/>
<path d="M7.10019 14.5333V23.2223C7.10019 24.4344 7.785 25.5424 8.86911 26.0845L8.94886 26.1243C9.83754 26.5687 10.8175 26.8 11.811 26.8H20.4768C22.0022 26.8 23.3155 25.7233 23.6147 24.2276L25.5347 14.6276C25.9307 12.6474 24.4162 10.8 22.3968 10.8H16.7002V4.4C16.7002 2.63269 15.2675 1.2 13.5002 1.2C12.6165 1.2 11.9002 1.91634 11.9002 2.8V3.86666C11.9002 5.25143 11.4511 6.59885 10.6202 7.70666L8.3802 10.6933C7.54933 11.8011 7.10019 13.1486 7.10019 14.5333Z" stroke="#1267E5"/>
</svg>
