<svg width="26" height="26" viewBox="0 0 26 26" fill="none" xmlns="http://www.w3.org/2000/svg">
<path d="M0.700195 13.8C0.700195 12.4745 1.77471 11.4 3.1002 11.4C4.42568 11.4 5.5002 12.4745 5.5002 13.8V23.4C5.5002 24.7255 4.42568 25.8 3.1002 25.8C1.77471 25.8 0.700195 24.7255 0.700195 23.4V13.8Z" fill="#888B93"/>
<path d="M7.10019 13.5333V22.2223C7.10019 23.4344 7.785 24.5424 8.86911 25.0845L8.94886 25.1243C9.83754 25.5687 10.8175 25.8 11.811 25.8H20.4768C22.0022 25.8 23.3155 24.7233 23.6147 23.2276L25.5347 13.6276C25.9307 11.6474 24.4162 9.8 22.3968 9.8H16.7002V3.4C16.7002 1.63269 15.2675 0.199997 13.5002 0.199997C12.6165 0.199997 11.9002 0.916341 11.9002 1.8V2.86666C11.9002 4.25143 11.4511 5.59885 10.6202 6.70666L8.3802 9.69333C7.54933 10.8011 7.10019 12.1486 7.10019 13.5333Z" fill="#888B93"/>
</svg>
