<svg width="13" height="17" viewBox="0 0 13 17" fill="none" xmlns="http://www.w3.org/2000/svg">
<path d="M1 2C1 0.895432 1.89543 0 3 0H7.58579C8.11622 0 8.62493 0.210714 9 0.585786L12.4142 4C12.7893 4.37507 13 4.88378 13 5.41421V14C13 15.1046 12.1046 16 11 16H9.47221C10.4223 14.9385 11 13.5367 11 12C11 8.68629 8.31371 6 5 6C3.46329 6 2.06151 6.57771 1 7.52779V2Z" fill="#1267E5"/>
<path fill-rule="evenodd" clip-rule="evenodd" d="M5 8C2.79086 8 1 9.79086 1 12C1 12.7414 1.20229 13.4364 1.55397 14.0318L0.292893 15.2929C-0.097631 15.6834 -0.0976311 16.3166 0.292893 16.7071C0.683417 17.0976 1.31658 17.0976 1.70711 16.7071L2.96818 15.446C3.56362 15.7977 4.25862 16 5 16C7.20914 16 9 14.2091 9 12C9 9.79086 7.20914 8 5 8ZM3 12C3 10.8954 3.89543 10 5 10C6.10457 10 7 10.8954 7 12C7 13.1046 6.10457 14 5 14C4.44744 14 3.94881 13.7772 3.58579 13.4142C3.22276 13.0512 3 12.5526 3 12Z" fill="#1267E5"/>
</svg>
