<svg width="20" height="20" viewBox="0 0 20 20" fill="none" xmlns="http://www.w3.org/2000/svg">
<path fill-rule="evenodd" clip-rule="evenodd" d="M10 19.6C15.302 19.6 19.6 15.302 19.6 10C19.6 4.69809 15.302 0.400024 10 0.400024C4.69809 0.400024 0.400024 4.69809 0.400024 10C0.400024 15.302 4.69809 19.6 10 19.6ZM11.2 5.20002C11.2 4.53728 10.6628 4.00002 10 4.00002C9.33728 4.00002 8.80002 4.53728 8.80002 5.20002V10C8.80002 10.3183 8.92645 10.6235 9.1515 10.8486L12.5456 14.2427C13.0142 14.7113 13.774 14.7113 14.2427 14.2427C14.7113 13.774 14.7113 13.0142 14.2427 12.5456L11.2 9.50297V5.20002Z" fill="#1267E6"/>
</svg>
