<svg width="24" height="18" viewBox="0 0 24 18" fill="none" xmlns="http://www.w3.org/2000/svg">
<path d="M12 11.4C13.3255 11.4 14.4 10.3255 14.4 8.99998C14.4 7.67449 13.3255 6.59998 12 6.59998C10.6745 6.59998 9.59998 7.67449 9.59998 8.99998C9.59998 10.3255 10.6745 11.4 12 11.4Z" fill="#1267E6"/>
<path fill-rule="evenodd" clip-rule="evenodd" d="M0.549316 9.00002C2.07841 4.13147 6.62676 0.599976 11.9999 0.599976C17.3731 0.599976 21.9214 4.13143 23.4505 8.99993C21.9214 13.8685 17.3731 17.4 11.9999 17.4C6.62677 17.4 2.07844 13.8685 0.549316 9.00002ZM16.8 8.99998C16.8 11.6509 14.6509 13.8 12 13.8C9.34902 13.8 7.19999 11.6509 7.19999 8.99998C7.19999 6.34901 9.34902 4.19998 12 4.19998C14.6509 4.19998 16.8 6.34901 16.8 8.99998Z" fill="#1267E6"/>
</svg>
