<svg width="31" height="23" viewBox="0 0 31 23" fill="none" xmlns="http://www.w3.org/2000/svg">
<path d="M15.5 14.7C17.2673 14.7 18.7 13.2673 18.7 11.5C18.7 9.73269 17.2673 8.3 15.5 8.3C13.7327 8.3 12.3 9.73269 12.3 11.5C12.3 13.2673 13.7327 14.7 15.5 14.7Z" fill="#888B93"/>
<path fill-rule="evenodd" clip-rule="evenodd" d="M0.232422 11.5001C2.27122 5.00866 8.33568 0.300003 15.4999 0.300003C22.6641 0.300003 28.7285 5.00861 30.7674 11.4999C28.7286 17.9913 22.6641 22.7 15.4999 22.7C8.33569 22.7 2.27126 17.9914 0.232422 11.5001ZM21.8999 11.5C21.8999 15.0346 19.0346 17.9 15.5 17.9C11.9654 17.9 9.09999 15.0346 9.09999 11.5C9.09999 7.96538 11.9654 5.1 15.5 5.1C19.0346 5.1 21.8999 7.96538 21.8999 11.5Z" fill="#888B93"/>
</svg>
