<svg width="16" height="18" viewBox="0 0 16 18" fill="none" xmlns="http://www.w3.org/2000/svg">
<path fill-rule="evenodd" clip-rule="evenodd" d="M8 0.944336C5.91528 2.81021 3.17437 3.95797 0.166107 3.99878C0.0568637 4.64956 0 5.31809 0 5.99991C0 11.2248 3.33923 15.6697 8 17.317C12.6608 15.6697 16 11.2248 16 5.99991C16 5.31809 15.9431 4.64956 15.8339 3.99878C12.8256 3.95797 10.0847 2.81021 8 0.944336ZM9 5.99988C9 5.44759 8.55229 4.99988 8 4.99988C7.44772 4.99988 7 5.44759 7 5.99988C7 6.55216 7.44772 6.99988 8 6.99988C8.55229 6.99988 9 6.55216 9 5.99988ZM9 12.9999C9 13.5522 8.55229 13.9999 8 13.9999C7.44772 13.9999 7 13.5522 7 12.9999V9.99988C7 9.44759 7.44772 8.99988 8 8.99988C8.55229 8.99988 9 9.44759 9 9.99988V12.9999Z" fill="#1267E6"/>
</svg>
