<svg width="27" height="27" viewBox="0 0 27 27" fill="none" xmlns="http://www.w3.org/2000/svg">
<path fill-rule="evenodd" clip-rule="evenodd" d="M26.3002 13.5C26.3002 20.5692 20.5694 26.3 13.5002 26.3C6.43095 26.3 0.700195 20.5692 0.700195 13.5C0.700195 6.43075 6.43095 0.699997 13.5002 0.699997C20.5694 0.699997 26.3002 6.43075 26.3002 13.5ZM19.0628 21.3251C17.4934 22.4427 15.5736 23.1 13.5002 23.1C8.19826 23.1 3.9002 18.8019 3.9002 13.5C3.9002 11.4266 4.55749 9.50676 5.67508 7.93743L19.0628 21.3251ZM21.3255 19.0623L7.93785 5.67472C9.50714 4.55723 11.4269 3.9 13.5002 3.9C18.8021 3.9 23.1002 8.19806 23.1002 13.5C23.1002 15.5733 22.443 17.493 21.3255 19.0623Z" fill="#888B93"/>
</svg>
