<svg width="80" height="80" viewBox="0 0 80 80" fill="none" xmlns="http://www.w3.org/2000/svg">
<circle cx="40" cy="40" r="40" fill="#1267E5"/>
<path d="M20.807 30.1212L39.9998 39.7164L59.1926 30.1212C59.1215 28.8983 58.5856 27.7488 57.6946 26.9082C56.8035 26.0675 55.6248 25.5994 54.3998 25.5996H25.5998C24.3748 25.5994 23.1961 26.0675 22.305 26.9082C21.414 27.7488 20.8781 28.8983 20.807 30.1212Z" fill="white"/>
<path d="M59.1998 35.4828L39.9998 45.0828L20.7998 35.4828V49.5996C20.7998 50.8727 21.3055 52.0935 22.2057 52.9937C23.1059 53.8939 24.3268 54.3996 25.5998 54.3996H54.3998C55.6728 54.3996 56.8937 53.8939 57.7939 52.9937C58.6941 52.0935 59.1998 50.8727 59.1998 49.5996V35.4828Z" fill="white"/>
</svg>
