<svg width="20" height="20" viewBox="0 0 20 20" fill="none" xmlns="http://www.w3.org/2000/svg">
<path d="M0.400024 10.6C0.400024 9.60591 1.20591 8.80002 2.20002 8.80002C3.19414 8.80002 4.00002 9.60591 4.00002 10.6V17.8C4.00002 18.7941 3.19414 19.6 2.20002 19.6C1.20591 19.6 0.400024 18.7941 0.400024 17.8V10.6Z" fill="#1267E6"/>
<path d="M5.20002 10.4V16.9167C5.20002 17.8258 5.71363 18.6568 6.52671 19.0634L6.58653 19.0933C7.25303 19.4265 7.98797 19.6 8.73315 19.6H15.2325C16.3765 19.6 17.3615 18.7925 17.5859 17.6707L19.0259 10.4707C19.3229 8.98561 18.187 7.60002 16.6725 7.60002H12.4V2.80002C12.4 1.47454 11.3255 0.400024 10 0.400024C9.33728 0.400024 8.80002 0.937283 8.80002 1.60002V2.40002C8.80002 3.4386 8.46317 4.44916 7.84002 5.28002L6.16002 7.52002C5.53688 8.35089 5.20002 9.36145 5.20002 10.4Z" fill="#1267E6"/>
</svg>
