<svg width="20" height="18" viewBox="0 0 20 18" fill="none" xmlns="http://www.w3.org/2000/svg">
<path d="M17.4226 6.93062C17.2779 6.89835 17.1301 6.88206 16.9818 6.88204H12.0364V3.68204C12.0364 0.806114 9.44439 0.77295 9.41821 0.77295C9.26517 0.772575 9.13801 0.890834 9.1273 1.0435C9.02457 2.50133 8.73718 3.94023 8.27203 5.32568C8.01341 6.0195 7.44817 6.66822 6.90213 7.29542C6.25224 8.04219 5.58024 8.81426 5.35333 9.72044C5.34783 9.74359 5.3452 9.76734 5.34548 9.79113V17.6457C5.34548 17.8063 5.47572 17.9366 5.63639 17.9366H15.4296C16.3859 17.9412 17.2152 17.2761 17.4182 16.3415L18.9699 9.35971C19.2121 8.26188 18.5199 7.17518 17.4226 6.93062Z" fill="#1267E5"/>
<rect x="0.981812" y="8.0459" width="3.78182" height="9.89091" rx="1" fill="#1267E5"/>
</svg>
