<svg width="80" height="80" viewBox="0 0 80 80" fill="none" xmlns="http://www.w3.org/2000/svg">
<circle cx="40" cy="40" r="40" fill="#1267E5"/>
<path d="M59.9987 20.6143C59.8028 20.4497 59.5324 20.4055 59.2943 20.4991L20.1961 35.8591C19.9574 35.9527 19.7893 36.1696 19.7581 36.4241C19.7269 36.6785 19.8377 36.9296 20.0467 37.0781L26.3596 41.5674L42.327 34.1723L29.5273 43.8204V58.8509C29.5261 59.1169 29.6761 59.3604 29.9141 59.479C30.1522 59.5976 30.437 59.5706 30.6486 59.4095L40.6884 51.7574L51.4648 59.4199C51.5828 59.5042 51.7241 59.5494 51.8691 59.5491C51.9567 59.549 52.0436 59.5327 52.1253 59.5009C52.3451 59.4139 52.5059 59.2215 52.5526 58.9898L60.2326 21.288C60.2839 21.0376 60.1942 20.7791 59.9987 20.6143Z" fill="white"/>
</svg>
