<svg width="27" height="27" viewBox="0 0 27 27" fill="none" xmlns="http://www.w3.org/2000/svg">
<path fill-rule="evenodd" clip-rule="evenodd" d="M13.5002 26.3C20.5694 26.3 26.3002 20.5692 26.3002 13.5C26.3002 6.43075 20.5694 0.699997 13.5002 0.699997C6.43095 0.699997 0.700195 6.43075 0.700195 13.5C0.700195 20.5692 6.43095 26.3 13.5002 26.3ZM15.1002 7.1C15.1002 6.21634 14.3839 5.5 13.5002 5.5C12.6165 5.5 11.9002 6.21634 11.9002 7.1V13.5C11.9002 13.9243 12.0688 14.3313 12.3688 14.6314L16.8943 19.1569C17.5191 19.7817 18.5322 19.7817 19.157 19.1569C19.7819 18.532 19.7819 17.5189 19.157 16.8941L15.1002 12.8373V7.1Z" fill="#888B93"/>
</svg>
