<svg width="22" height="21" viewBox="0 0 22 21" fill="none" xmlns="http://www.w3.org/2000/svg">
<path d="M12.53 0.449951L11.45 1.52995L13.05 3.12995C13.27 3.37995 13.38 3.66995 13.38 3.99995C13.38 4.32995 13.27 4.63995 13.05 4.85995L9.5 8.46995L10.5 9.54995L14.13 5.93995C14.66 5.34995 14.92 4.69995 14.92 3.99995C14.92 3.29995 14.66 2.63995 14.13 2.04995L12.53 0.449951ZM8.55 2.46995L7.47 3.54995L8.08 4.10995C8.3 4.32995 8.41 4.62995 8.41 4.99995C8.41 5.36995 8.3 5.66995 8.08 5.88995L7.47 6.44995L8.55 7.52995L9.11 6.91995C9.64 6.32995 9.91 5.68995 9.91 4.99995C9.91 4.27995 9.64 3.62995 9.11 3.02995L8.55 2.46995ZM19 4.05995C18.31 4.05995 17.67 4.32995 17.08 4.85995L11.45 10.5L12.53 11.5L18.11 5.93995C18.36 5.68995 18.66 5.55995 19 5.55995C19.34 5.55995 19.64 5.68995 19.89 5.93995L20.5 6.54995L21.53 5.46995L20.97 4.85995C20.38 4.32995 19.72 4.05995 19 4.05995ZM5 6.99995L0 21L14 16L5 6.99995ZM17 10.06C16.3 10.06 15.66 10.33 15.06 10.86L13.47 12.45L14.55 13.53L16.14 11.94C16.39 11.69 16.67 11.56 17 11.56C17.33 11.56 17.63 11.69 17.88 11.94L19.5 13.53L20.55 12.5L18.95 10.86C18.36 10.33 17.7 10.06 17 10.06Z" fill="#1267E6"/>
</svg>
