<svg width="12" height="16" viewBox="0 0 12 16" fill="none" xmlns="http://www.w3.org/2000/svg">
<path fill-rule="evenodd" clip-rule="evenodd" d="M2 0C0.89543 0 0 0.895432 0 2V14C0 15.1046 0.89543 16 2 16H10C11.1046 16 12 15.1046 12 14V5.41421C12 4.88378 11.7893 4.37507 11.4142 4L8 0.585786C7.62493 0.210714 7.11622 0 6.58579 0H2ZM4 10C4 9.44771 3.55228 9 3 9C2.44772 9 2 9.44771 2 10V13C2 13.5523 2.44772 14 3 14C3.55228 14 4 13.5523 4 13V10ZM6 7C6.55228 7 7 7.44772 7 8V13C7 13.5523 6.55228 14 6 14C5.44772 14 5 13.5523 5 13V8C5 7.44772 5.44772 7 6 7ZM10 6C10 5.44772 9.55229 5 9 5C8.44771 5 8 5.44772 8 6V13C8 13.5523 8.44771 14 9 14C9.55229 14 10 13.5523 10 13V6Z" fill="#525F7F"/>
</svg>
