<svg width="30" height="28" viewBox="0 0 30 28" fill="none" xmlns="http://www.w3.org/2000/svg">
<mask id="path-1-inside-1_1948_3922" fill="white">
<path d="M17.3737 0.433334L15.9337 1.87333L18.067 4.00667C18.3603 4.34 18.507 4.72667 18.507 5.16667C18.507 5.60667 18.3603 6.02 18.067 6.31333L13.3337 11.1267L14.667 12.5667L19.507 7.75333C20.2137 6.96667 20.5603 6.1 20.5603 5.16667C20.5603 4.23333 20.2137 3.35333 19.507 2.56667L17.3737 0.433334ZM12.067 3.12667L10.627 4.56667L11.4403 5.31333C11.7337 5.60667 11.8803 6.00667 11.8803 6.5C11.8803 6.99333 11.7337 7.39333 11.4403 7.68667L10.627 8.43333L12.067 9.87333L12.8137 9.06C13.5203 8.27333 13.8803 7.42 13.8803 6.5C13.8803 5.54 13.5203 4.67333 12.8137 3.87333L12.067 3.12667ZM26.0003 5.24667C25.0803 5.24667 24.227 5.60667 23.4403 6.31333L15.9337 13.8333L17.3737 15.1667L24.8137 7.75333C25.147 7.42 25.547 7.24667 26.0003 7.24667C26.4537 7.24667 26.8537 7.42 27.187 7.75333L28.0003 8.56667L29.3737 7.12667L28.627 6.31333C27.8403 5.60667 26.9603 5.24667 26.0003 5.24667ZM7.33366 9.16667L0.666992 27.8333L19.3337 21.1667L7.33366 9.16667ZM23.3337 13.2467C22.4003 13.2467 21.547 13.6067 20.747 14.3133L18.627 16.4333L20.067 17.8733L22.187 15.7533C22.5203 15.42 22.8937 15.2467 23.3337 15.2467C23.7737 15.2467 24.1737 15.42 24.507 15.7533L26.667 17.8733L28.067 16.5L25.9337 14.3133C25.147 13.6067 24.267 13.2467 23.3337 13.2467Z"/>
</mask>
<path d="M17.3737 0.433334L15.9337 1.87333L18.067 4.00667C18.3603 4.34 18.507 4.72667 18.507 5.16667C18.507 5.60667 18.3603 6.02 18.067 6.31333L13.3337 11.1267L14.667 12.5667L19.507 7.75333C20.2137 6.96667 20.5603 6.1 20.5603 5.16667C20.5603 4.23333 20.2137 3.35333 19.507 2.56667L17.3737 0.433334ZM12.067 3.12667L10.627 4.56667L11.4403 5.31333C11.7337 5.60667 11.8803 6.00667 11.8803 6.5C11.8803 6.99333 11.7337 7.39333 11.4403 7.68667L10.627 8.43333L12.067 9.87333L12.8137 9.06C13.5203 8.27333 13.8803 7.42 13.8803 6.5C13.8803 5.54 13.5203 4.67333 12.8137 3.87333L12.067 3.12667ZM26.0003 5.24667C25.0803 5.24667 24.227 5.60667 23.4403 6.31333L15.9337 13.8333L17.3737 15.1667L24.8137 7.75333C25.147 7.42 25.547 7.24667 26.0003 7.24667C26.4537 7.24667 26.8537 7.42 27.187 7.75333L28.0003 8.56667L29.3737 7.12667L28.627 6.31333C27.8403 5.60667 26.9603 5.24667 26.0003 5.24667ZM7.33366 9.16667L0.666992 27.8333L19.3337 21.1667L7.33366 9.16667ZM23.3337 13.2467C22.4003 13.2467 21.547 13.6067 20.747 14.3133L18.627 16.4333L20.067 17.8733L22.187 15.7533C22.5203 15.42 22.8937 15.2467 23.3337 15.2467C23.7737 15.2467 24.1737 15.42 24.507 15.7533L26.667 17.8733L28.067 16.5L25.9337 14.3133C25.147 13.6067 24.267 13.2467 23.3337 13.2467Z" fill="#525F7F"/>
<path d="M17.3737 0.433334L53.4361 -35.6291L17.3737 -71.6916L-18.6888 -35.6291L17.3737 0.433334ZM15.9337 1.87333L-20.1288 -34.1891L-56.1912 1.87334L-20.1288 37.9358L15.9337 1.87333ZM18.067 4.00667L56.3534 -29.6854L55.2792 -30.906L54.1294 -32.0558L18.067 4.00667ZM18.067 6.31333L-17.9955 -29.7491L-18.1465 -29.598L-18.2964 -29.4457L18.067 6.31333ZM13.3337 11.1267L-23.0297 -24.6323L-57.1524 10.0671L-24.0881 45.7765L13.3337 11.1267ZM14.667 12.5667L-22.7548 47.2165L13.1539 85.9979L50.6297 48.7286L14.667 12.5667ZM19.507 7.75333L55.4697 43.9153L56.4876 42.903L57.447 41.835L19.507 7.75333ZM19.507 2.56667L57.447 -31.515L56.5347 -32.5305L55.5694 -33.4958L19.507 2.56667ZM12.067 3.12667L48.1295 -32.9358L12.067 -68.9983L-23.9955 -32.9358L12.067 3.12667ZM10.627 4.56667L-25.4355 -31.4958L-63.0719 6.14071L-23.8629 42.1359L10.627 4.56667ZM11.4403 5.31333L47.5028 -30.7491L46.7326 -31.5193L45.9302 -32.2559L11.4403 5.31333ZM11.4403 7.68667L45.9302 45.2559L46.7326 44.5193L47.5028 43.7491L11.4403 7.68667ZM10.627 8.43333L-23.8629 -29.1359L-63.0719 6.8593L-25.4355 44.4958L10.627 8.43333ZM12.067 9.87333L-23.9955 45.9358L13.641 83.5723L49.6363 44.3632L12.067 9.87333ZM12.8137 9.06L50.383 43.5498L50.5694 43.3467L50.7536 43.1417L12.8137 9.06ZM12.8137 3.87333L51.0368 -29.8904L49.992 -31.0732L48.8761 -32.1891L12.8137 3.87333ZM23.4403 6.31333L-10.6413 -31.6266L-11.6737 -30.6992L-12.6541 -29.7171L23.4403 6.31333ZM15.9337 13.8333L-20.1608 -22.1971L-57.5704 15.279L-18.7161 51.2551L15.9337 13.8333ZM17.3737 15.1667L-17.2761 52.5885L18.6694 85.8713L53.3713 51.2938L17.3737 15.1667ZM24.8137 7.75333L60.8113 43.8805L60.8437 43.8482L60.8761 43.8158L24.8137 7.75333ZM27.187 7.75333L63.2495 -28.3091L63.2494 -28.3091L27.187 7.75333ZM28.0003 8.56667L-8.06214 44.6291L28.865 81.5563L64.907 43.7647L28.0003 8.56667ZM29.3737 7.12667L66.2803 42.3246L99.2154 7.7907L66.9429 -27.3632L29.3737 7.12667ZM28.627 6.31333L66.1962 -28.1766L64.5355 -29.9856L62.7087 -31.6266L28.627 6.31333ZM7.33366 9.16667L43.3961 -26.8958L-13.5898 -83.8816L-40.6952 -7.98649L7.33366 9.16667ZM0.666992 27.8333L-47.3618 10.6802L-83.5741 112.074L17.8201 75.8622L0.666992 27.8333ZM19.3337 21.1667L36.4868 69.1955L112.382 42.0901L55.3961 -14.8958L19.3337 21.1667ZM20.747 14.3133L-13.0168 -23.9098L-14.1995 -22.865L-15.3155 -21.7491L20.747 14.3133ZM18.627 16.4333L-17.4355 -19.6291L-53.4979 16.4333L-17.4355 52.4958L18.627 16.4333ZM20.067 17.8733L-15.9955 53.9358L20.067 89.9982L56.1294 53.9358L20.067 17.8733ZM22.187 15.7533L58.2494 51.8158L58.2494 51.8158L22.187 15.7533ZM24.507 15.7533L-11.5555 51.8158L-11.3869 51.9843L-11.2169 52.1512L24.507 15.7533ZM26.667 17.8733L-9.05687 54.2712L26.6574 89.3241L62.381 54.2809L26.667 17.8733ZM28.067 16.5L63.781 52.9075L100.089 17.2909L64.5719 -19.1145L28.067 16.5ZM25.9337 14.3133L62.4386 -21.3012L61.2652 -22.5038L60.0153 -23.6266L25.9337 14.3133ZM-18.6888 -35.6291L-20.1288 -34.1891L51.9961 37.9358L53.4361 36.4958L-18.6888 -35.6291ZM-20.1288 37.9358L-17.9954 40.0691L54.1294 -32.0558L51.9961 -34.1891L-20.1288 37.9358ZM-20.2194 37.6987C-28.0373 28.8147 -32.493 17.254 -32.493 5.16667H69.507C69.507 -7.80071 64.7579 -20.1347 56.3534 -29.6854L-20.2194 37.6987ZM-32.493 5.16667C-32.493 -5.3947 -28.9149 -18.8296 -17.9955 -29.7491L54.1294 42.3758C65.6356 30.8696 69.507 16.608 69.507 5.16667H-32.493ZM-18.2964 -29.4457L-23.0297 -24.6323L49.697 46.8857L54.4304 42.0723L-18.2964 -29.4457ZM-24.0881 45.7765L-22.7548 47.2165L52.0888 -22.0831L50.7555 -23.5231L-24.0881 45.7765ZM50.6297 48.7286L55.4697 43.9153L-16.4557 -28.4086L-21.2957 -23.5953L50.6297 48.7286ZM57.447 41.835C65.6035 32.755 71.5603 20.047 71.5603 5.16667H-30.4397C-30.4397 -7.84701 -25.1762 -18.8217 -18.433 -26.3283L57.447 41.835ZM71.5603 5.16667C71.5603 -9.52827 65.7396 -22.2836 57.447 -31.515L-18.433 36.6483C-25.3123 28.9903 -30.4397 17.9949 -30.4397 5.16667H71.5603ZM55.5694 -33.4958L53.4361 -35.6291L-18.6888 36.4958L-16.5555 38.6291L55.5694 -33.4958ZM-23.9955 -32.9358L-25.4355 -31.4958L46.6894 40.6291L48.1294 39.1891L-23.9955 -32.9358ZM-23.8629 42.1359L-23.0495 42.8826L45.9302 -32.2559L45.1168 -33.0026L-23.8629 42.1359ZM-24.6221 41.3758C-35.8052 30.1927 -39.1197 16.5647 -39.1197 6.5H62.8803C62.8803 -4.55136 59.2725 -18.9793 47.5028 -30.7491L-24.6221 41.3758ZM-39.1197 6.5C-39.1197 -3.56473 -35.8052 -17.1927 -24.6221 -28.3758L47.5028 43.7491C59.2725 31.9794 62.8803 17.5514 62.8803 6.5H-39.1197ZM-23.0495 -29.8826L-23.8629 -29.1359L45.1169 46.0026L45.9302 45.2559L-23.0495 -29.8826ZM-25.4355 44.4958L-23.9955 45.9358L48.1294 -26.1891L46.6894 -27.6291L-25.4355 44.4958ZM49.6363 44.3632L50.383 43.5498L-24.7556 -25.4298L-25.5023 -24.6165L49.6363 44.3632ZM50.7536 43.1417C58.354 34.6808 64.8803 22.0989 64.8803 6.5H-37.1197C-37.1197 -7.25886 -31.3134 -18.1341 -25.1263 -25.0217L50.7536 43.1417ZM64.8803 6.5C64.8803 -8.71837 58.6843 -21.2329 51.0368 -29.8904L-25.4095 37.6371C-31.6436 30.5796 -37.1197 19.7984 -37.1197 6.5H64.8803ZM48.8761 -32.1891L48.1295 -32.9358L-23.9955 39.1891L-23.2488 39.9358L48.8761 -32.1891ZM26.0003 -45.7533C10.4015 -45.7533 -2.18048 -39.2271 -10.6413 -31.6266L57.522 44.2533C50.6345 50.4404 39.7592 56.2467 26.0003 56.2467V-45.7533ZM-12.6541 -29.7171L-20.1608 -22.1971L52.0281 49.8638L59.5348 42.3438L-12.6541 -29.7171ZM-18.7161 51.2551L-17.2761 52.5885L52.0235 -22.2551L50.5835 -23.5885L-18.7161 51.2551ZM53.3713 51.2938L60.8113 43.8805L-11.184 -28.3738L-18.624 -20.9605L53.3713 51.2938ZM60.8761 43.8158C52.289 52.4029 39.9572 58.2467 26.0003 58.2467V-43.7533C11.1368 -43.7533 -1.99499 -37.5629 -11.2488 -28.3091L60.8761 43.8158ZM26.0003 58.2467C12.0434 58.2467 -0.288323 52.4029 -8.87545 43.8158L63.2494 -28.3091C53.9956 -37.5629 40.8639 -43.7533 26.0003 -43.7533V58.2467ZM-8.87547 43.8158L-8.06214 44.6291L64.0628 -27.4958L63.2495 -28.3091L-8.87547 43.8158ZM64.907 43.7647L66.2803 42.3246L-7.53301 -28.0713L-8.90634 -26.6313L64.907 43.7647ZM66.9429 -27.3632L66.1962 -28.1766L-8.94225 40.8032L-8.19558 41.6166L66.9429 -27.3632ZM62.7087 -31.6266C53.699 -39.72 40.9926 -45.7533 26.0003 -45.7533V56.2467C12.9281 56.2467 1.98162 50.9333 -5.45467 44.2533L62.7087 -31.6266ZM-40.6952 -7.98649L-47.3618 10.6802L48.6958 44.9865L55.3625 26.3198L-40.6952 -7.98649ZM17.8201 75.8622L36.4868 69.1955L2.18051 -26.8622L-16.4862 -20.1955L17.8201 75.8622ZM55.3961 -14.8958L43.3961 -26.8958L-28.7288 45.2291L-16.7288 57.2291L55.3961 -14.8958ZM23.3337 -37.7533C7.77832 -37.7533 -4.67649 -31.2771 -13.0168 -23.9098L54.5108 52.5365C47.7705 58.4904 37.0223 64.2467 23.3337 64.2467V-37.7533ZM-15.3155 -21.7491L-17.4355 -19.6291L54.6894 52.4958L56.8094 50.3758L-15.3155 -21.7491ZM-17.4355 52.4958L-15.9955 53.9358L56.1295 -18.1891L54.6895 -19.6291L-17.4355 52.4958ZM56.1294 53.9358L58.2494 51.8158L-13.8755 -20.3091L-15.9955 -18.1891L56.1294 53.9358ZM58.2494 51.8158C54.7942 55.2711 49.9534 59.0627 43.5469 61.9288C36.9868 64.8635 30.0711 66.2467 23.3337 66.2467V-35.7533C7.37926 -35.7533 -5.48199 -28.7026 -13.8755 -20.3091L58.2494 51.8158ZM23.3337 66.2467C9.14546 66.2467 -3.13302 60.2382 -11.5555 51.8158L60.5694 -20.3091C51.4803 -29.3982 38.4019 -35.7533 23.3337 -35.7533V66.2467ZM-11.2169 52.1512L-9.05687 54.2712L62.3909 -18.5245L60.2309 -20.6445L-11.2169 52.1512ZM62.381 54.2809L63.781 52.9075L-7.64705 -19.9075L-9.04705 -18.5342L62.381 54.2809ZM64.5719 -19.1145L62.4386 -21.3012L-10.5712 49.9278L-8.43791 52.1145L64.5719 -19.1145ZM60.0153 -23.6266C51.1586 -31.5827 38.4827 -37.7533 23.3337 -37.7533V64.2467C10.0513 64.2467 -0.864609 58.796 -8.148 52.2533L60.0153 -23.6266Z" fill="#888B93" mask="url(#path-1-inside-1_1948_3922)"/>
</svg>
