<svg width="30" height="28" viewBox="0 0 30 28" fill="none" xmlns="http://www.w3.org/2000/svg">
<path d="M17.3732 0.433334L15.9332 1.87333L18.0665 4.00667C18.3598 4.34 18.5065 4.72667 18.5065 5.16667C18.5065 5.60667 18.3598 6.02 18.0665 6.31333L13.3332 11.1267L14.6665 12.5667L19.5065 7.75333C20.2132 6.96667 20.5598 6.1 20.5598 5.16667C20.5598 4.23333 20.2132 3.35333 19.5065 2.56667L17.3732 0.433334ZM12.0665 3.12667L10.6265 4.56667L11.4398 5.31333C11.7332 5.60667 11.8798 6.00667 11.8798 6.5C11.8798 6.99333 11.7332 7.39333 11.4398 7.68667L10.6265 8.43333L12.0665 9.87333L12.8132 9.06C13.5198 8.27333 13.8798 7.42 13.8798 6.5C13.8798 5.54 13.5198 4.67333 12.8132 3.87333L12.0665 3.12667ZM25.9998 5.24667C25.0798 5.24667 24.2265 5.60667 23.4398 6.31333L15.9332 13.8333L17.3732 15.1667L24.8132 7.75333C25.1465 7.42 25.5465 7.24667 25.9998 7.24667C26.4532 7.24667 26.8532 7.42 27.1865 7.75333L27.9998 8.56667L29.3732 7.12667L28.6265 6.31333C27.8398 5.60667 26.9598 5.24667 25.9998 5.24667ZM7.33317 9.16667L0.666504 27.8333L19.3332 21.1667L7.33317 9.16667ZM23.3332 13.2467C22.3998 13.2467 21.5465 13.6067 20.7465 14.3133L18.6265 16.4333L20.0665 17.8733L22.1865 15.7533C22.5198 15.42 22.8932 15.2467 23.3332 15.2467C23.7732 15.2467 24.1732 15.42 24.5065 15.7533L26.6665 17.8733L28.0665 16.5L25.9332 14.3133C25.1465 13.6067 24.2665 13.2467 23.3332 13.2467Z" fill="#1267E5"/>
</svg>
