<svg width="20" height="20" viewBox="0 0 20 20" fill="none" xmlns="http://www.w3.org/2000/svg">
<path fill-rule="evenodd" clip-rule="evenodd" d="M19.6 10C19.6 15.302 15.3019 19.6 9.99999 19.6C4.69806 19.6 0.399994 15.302 0.399994 10C0.399994 4.69809 4.69806 0.400024 9.99999 0.400024C15.3019 0.400024 19.6 4.69809 19.6 10ZM14.1719 15.8689C12.9949 16.7071 11.555 17.2 9.99999 17.2C6.02354 17.2 2.79999 13.9765 2.79999 10C2.79999 8.44499 3.29297 7.0051 4.13116 5.8281L14.1719 15.8689ZM15.869 14.1718L5.82824 4.13107C7.00521 3.29295 8.44504 2.80002 9.99999 2.80002C13.9764 2.80002 17.2 6.02357 17.2 10C17.2 11.555 16.7071 12.9948 15.869 14.1718Z" fill="#1267E6"/>
</svg>
