<svg width="19" height="18" viewBox="0 0 19 18" fill="none" xmlns="http://www.w3.org/2000/svg">
<path fill-rule="evenodd" clip-rule="evenodd" d="M7.40835 1.96849C8.32588 0.337327 10.6744 0.337326 11.5919 1.96849L18.2883 13.8731C19.1882 15.473 18.0321 17.4498 16.1965 17.4498H2.80376C0.968179 17.4498 -0.187934 15.473 0.711981 13.8731L7.40835 1.96849ZM10.7 13.8499C10.7 14.5126 10.1628 15.0499 9.50002 15.0499C8.83728 15.0499 8.30002 14.5126 8.30002 13.8499C8.30002 13.1872 8.83728 12.6499 9.50002 12.6499C10.1628 12.6499 10.7 13.1872 10.7 13.8499ZM9.50002 4.2499C8.83728 4.2499 8.30002 4.78716 8.30002 5.4499V9.0499C8.30002 9.71264 8.83728 10.2499 9.50002 10.2499C10.1628 10.2499 10.7 9.71264 10.7 9.0499V5.4499C10.7 4.78716 10.1628 4.2499 9.50002 4.2499Z" fill="#EC0C38"/>
</svg>
