<svg width="80" height="80" viewBox="0 0 80 80" fill="none" xmlns="http://www.w3.org/2000/svg">
<circle cx="40" cy="40" r="40" fill="#EC0C38"/>
<path fill-rule="evenodd" clip-rule="evenodd" d="M59.1998 39.9998C59.1998 50.6037 50.6037 59.1998 39.9998 59.1998C29.3959 59.1998 20.7998 50.6037 20.7998 39.9998C20.7998 29.3959 29.3959 20.7998 39.9998 20.7998C50.6037 20.7998 59.1998 29.3959 59.1998 39.9998ZM48.3437 51.7375C45.9897 53.4139 43.1099 54.3998 39.9998 54.3998C32.0469 54.3998 25.5998 47.9527 25.5998 39.9998C25.5998 36.8897 26.5858 34.0099 28.2621 31.656L48.3437 51.7375ZM51.7377 48.3433L31.6563 28.2619C34.0102 26.5857 36.8899 25.5998 39.9998 25.5998C47.9527 25.5998 54.3998 32.0469 54.3998 39.9998C54.3998 43.1097 53.414 45.9894 51.7377 48.3433Z" fill="white"/>
</svg>
