<svg width="342" height="84" viewBox="0 0 342 84" fill="none" xmlns="http://www.w3.org/2000/svg">
<path d="M84 34.3593C76.5833 25.2448 61.8373 11.0313 42 11.0313C22.1627 11.0313 7.41667 25.2448 0 34.3593C3.59278 14.822 21.0302 0 42 0C62.9698 0 80.4072 14.822 84 34.3593Z" fill="#1267E5"/>
<path d="M84 49.6407C76.5833 58.7552 61.8373 72.9687 42 72.9687C22.1627 72.9687 7.41667 58.7552 0 49.6407C3.59278 69.178 21.0302 84 42 84C62.9698 84 80.4072 69.178 84 49.6407Z" fill="#ED502D"/>
<path d="M26.1559 23.0561L37.6876 31.6226L39.6612 17.5726C40.4312 17.5022 41.2115 17.4662 42.0004 17.4662C42.7893 17.4662 43.5696 17.5022 44.3396 17.5726L46.3132 31.6226L57.8449 23.0561C59.0485 24.033 60.1565 25.1189 61.1533 26.2985L52.4124 37.6001L66.7483 39.5343C66.8202 40.289 66.857 41.0537 66.857 41.8269C66.857 42.6 66.8202 43.3647 66.7483 44.1195L52.4124 46.0536L61.1533 57.3553C60.1565 58.5348 59.0485 59.6208 57.8449 60.5977L46.3132 52.0312L44.3396 66.0811C43.5696 66.1516 42.7893 66.1876 42.0004 66.1876C41.2115 66.1876 40.4312 66.1516 39.6612 66.0811L37.6876 52.0312L26.1559 60.5977C24.9523 59.6208 23.8443 58.5348 22.8475 57.3553L31.5884 46.0536L17.2525 44.1195C17.1806 43.3647 17.1438 42.6 17.1438 41.8269C17.1438 41.0537 17.1806 40.289 17.2525 39.5343L31.5884 37.6001L22.8475 26.2985C23.8443 25.1189 24.9523 24.033 26.1559 23.0561Z" fill="#E9C02F"/>
<path d="M112.277 0.671998H126.053V83.328H112.277V12.904L103.277 0.671998H112.277Z" fill="#09387D"/>
<path d="M157.951 0.671998H191.551C198.57 0.671998 204.132 2.53866 208.239 6.272C212.346 9.93066 214.399 16.6133 214.399 26.32C214.399 33.6373 213.092 38.976 210.479 42.336C207.94 45.696 204.58 48.0853 200.399 49.504L216.303 83.328H202.303L187.967 51.52C183.412 51.52 177.999 51.4453 171.727 51.296V83.328H157.951V0.671998ZM189.199 40.432C192.783 40.432 195.546 39.424 197.487 37.408C199.503 35.3173 200.511 31.6213 200.511 26.32C200.511 21.2427 199.503 17.7707 197.487 15.904C195.546 14.0373 192.783 13.104 189.199 13.104H171.727V40.432H189.199Z" fill="#09387D"/>
<path d="M243.875 0.671998H257.651V83.328H243.875V0.671998Z" fill="#09387D"/>
<path d="M313.964 84C309.932 84 305.452 83.776 300.524 83.328C295.596 82.88 291.527 82.2827 288.316 81.536V70.672C295.036 71.2693 303.362 71.568 313.292 71.568C318.295 71.568 322.066 70.8587 324.604 69.44C327.218 68.0213 328.524 65.4453 328.524 61.712V57.792C328.524 54.88 327.703 52.64 326.06 51.072C324.418 49.504 321.991 48.72 318.78 48.72H311.052C303.212 48.72 297.314 47.0027 293.356 43.568C289.474 40.1333 287.532 34.5707 287.532 26.88V22.624C287.532 14.8587 289.698 9.14666 294.028 5.488C298.359 1.82933 304.78 0 313.292 0C317.175 0 321.394 0.261332 325.948 0.783997C330.578 1.30667 334.535 1.904 337.82 2.576V13.44C327.74 12.768 320.087 12.432 314.86 12.432C310.156 12.432 306.61 13.216 304.22 14.784C301.906 16.2773 300.748 19.0773 300.748 23.184V25.984C300.748 29.344 301.644 31.7707 303.436 33.264C305.303 34.7573 308.103 35.504 311.836 35.504H320.46C327.404 35.504 332.668 37.408 336.252 41.216C339.911 44.9493 341.74 49.9147 341.74 56.112V61.376C341.74 69.9627 339.351 75.8987 334.572 79.184C329.794 82.3947 322.924 84 313.964 84Z" fill="#09387D"/>
</svg>
