<svg width="462" height="53" viewBox="0 0 462 53" fill="none" xmlns="http://www.w3.org/2000/svg">
<path d="M49.2669 20.1768C44.9169 14.8245 36.2682 6.47789 24.6334 6.47789C12.9987 6.47789 4.34996 14.8245 0 20.1768C2.1072 8.70394 12.3344 0 24.6334 0C36.9324 0 47.1597 8.70394 49.2669 20.1768Z" fill="#1267E5"/>
<path d="M49.2669 29.1505C44.9169 34.5028 36.2682 42.8495 24.6334 42.8495C12.9987 42.8495 4.34996 34.5028 0 29.1505C2.1072 40.6234 12.3344 49.3274 24.6334 49.3274C36.9324 49.3274 47.1597 40.6234 49.2669 29.1505Z" fill="#ED502D"/>
<path d="M15.3407 13.5392L22.1042 18.5697L23.2617 10.3192C23.7134 10.2778 24.171 10.2567 24.6337 10.2567C25.0964 10.2567 25.554 10.2778 26.0057 10.3192L27.1632 18.5697L33.9266 13.5392C34.6325 14.1129 35.2824 14.7506 35.867 15.4433L30.7404 22.0799L39.1486 23.2157C39.1908 23.6589 39.2123 24.108 39.2123 24.562C39.2123 25.016 39.1908 25.4651 39.1486 25.9083L30.7404 27.0441L35.8671 33.6808C35.2824 34.3734 34.6325 35.0111 33.9266 35.5848L27.1632 30.5543L26.0057 38.8048C25.554 38.8462 25.0964 38.8674 24.6337 38.8674C24.171 38.8674 23.7134 38.8462 23.2617 38.8048L22.1042 30.5543L15.3407 35.5848C14.6348 35.0111 13.9849 34.3734 13.4003 33.6808L18.5269 27.0441L10.1188 25.9083C10.0766 25.4651 10.0551 25.016 10.0551 24.562C10.0551 24.108 10.0766 23.6589 10.1188 23.2157L18.5269 22.0799L13.4003 15.4433C13.9849 14.7506 14.6348 14.1129 15.3407 13.5392Z" fill="#E9C02F"/>
<path d="M65.8518 0.394618H73.9316V48.9327H65.8518V7.57762L60.5732 0.394618H65.8518Z" fill="#09387D"/>
<path d="M92.6399 0.394618H112.347C116.463 0.394618 119.726 1.49078 122.134 3.68311C124.543 5.83159 125.747 9.75585 125.747 15.4559C125.747 19.7529 124.981 22.8879 123.448 24.861C121.959 26.8341 119.989 28.2372 117.536 29.0702L126.864 48.9327H118.653L110.245 30.2541C107.573 30.2541 104.398 30.2103 100.72 30.1226V48.9327H92.6399V0.394618ZM110.967 23.7429C113.069 23.7429 114.69 23.151 115.828 21.9671C117.011 20.7394 117.602 18.569 117.602 15.4559C117.602 12.4743 117.011 10.4355 115.828 9.33931C114.69 8.24315 113.069 7.69507 110.967 7.69507H100.72V23.7429H110.967Z" fill="#09387D"/>
<path d="M143.035 0.394618H151.115V48.9327H143.035V0.394618Z" fill="#09387D"/>
<path d="M184.143 49.3274C181.779 49.3274 179.151 49.1958 176.261 48.9327C173.37 48.6697 170.984 48.3189 169.101 47.8804V41.5007C173.042 41.8515 177.925 42.0269 183.749 42.0269C186.683 42.0269 188.895 41.6104 190.384 40.7773C191.917 39.9442 192.683 38.4315 192.683 36.2392V33.9372C192.683 32.2272 192.201 30.9118 191.238 29.991C190.274 29.0703 188.851 28.6099 186.968 28.6099H182.435C177.837 28.6099 174.378 27.6014 172.057 25.5845C169.779 23.5675 168.641 20.3009 168.641 15.7848V13.2855C168.641 8.72546 169.911 5.3712 172.451 3.22272C174.991 1.07424 178.757 0 183.749 0C186.026 0 188.501 0.153462 191.172 0.460387C193.887 0.767314 196.208 1.11809 198.135 1.51271V7.89238C192.223 7.49776 187.734 7.30045 184.669 7.30045C181.91 7.30045 179.83 7.76084 178.428 8.68161C177.071 9.55854 176.392 11.2028 176.392 13.6144V15.2586C176.392 17.2317 176.918 18.6567 177.969 19.5336C179.063 20.4106 180.706 20.849 182.895 20.849H187.953C192.026 20.849 195.113 21.9671 197.216 24.2033C199.361 26.3956 200.434 29.3114 200.434 32.9507V36.0419C200.434 41.0842 199.033 44.57 196.23 46.4992C193.427 48.3846 189.399 49.3274 184.143 49.3274Z" fill="#09387D"/>
<path d="M224.111 0.234917V16H221.732V0.234917H224.111Z" fill="#474F59"/>
<path d="M229.692 8.97961V16H227.39V4.17619H229.599V6.10064H229.745C230.017 5.47455 230.443 4.97163 231.023 4.59187C231.608 4.21211 232.345 4.02223 233.232 4.02223C234.038 4.02223 234.744 4.19158 235.349 4.53029C235.955 4.86386 236.425 5.36165 236.758 6.02366C237.092 6.68567 237.258 7.5042 237.258 8.47925V16H234.957V8.75637C234.957 7.89935 234.734 7.22965 234.287 6.74725C233.841 6.25972 233.227 6.01596 232.447 6.01596C231.914 6.01596 231.439 6.13143 231.023 6.36236C230.613 6.59329 230.287 6.932 230.046 7.37847C229.81 7.81981 229.692 8.35352 229.692 8.97961Z" fill="#474F59"/>
<path d="M245.865 4.17619V6.02366H239.406V4.17619H245.865ZM241.138 1.3434H243.44V12.5283C243.44 12.9748 243.506 13.3109 243.64 13.5367C243.773 13.7574 243.945 13.9088 244.156 13.9909C244.371 14.0679 244.605 14.1063 244.856 14.1063C245.041 14.1063 245.203 14.0935 245.341 14.0679C245.48 14.0422 245.587 14.0217 245.664 14.0063L246.08 15.9076C245.947 15.9589 245.757 16.0103 245.51 16.0616C245.264 16.118 244.956 16.1488 244.587 16.154C243.981 16.1642 243.417 16.0564 242.893 15.8306C242.37 15.6048 241.946 15.2559 241.623 14.7837C241.3 14.3116 241.138 13.7189 241.138 13.0056V1.3434Z" fill="#474F59"/>
<path d="M253.38 16.2386C252.215 16.2386 251.211 15.9897 250.37 15.4919C249.533 14.989 248.887 14.2834 248.43 13.375C247.978 12.4616 247.752 11.3916 247.752 10.1651C247.752 8.95395 247.978 7.88652 248.43 6.96279C248.887 6.03905 249.523 5.31803 250.339 4.79971C251.16 4.28139 252.12 4.02223 253.218 4.02223C253.885 4.02223 254.532 4.13257 255.158 4.35324C255.784 4.57391 256.346 4.92031 256.844 5.39244C257.341 5.86457 257.734 6.47783 258.021 7.23221C258.309 7.98146 258.452 8.89237 258.452 9.96493V10.7809H249.053V9.05659H256.197C256.197 8.45103 256.074 7.91475 255.827 7.44775C255.581 6.97562 255.235 6.60356 254.788 6.33157C254.347 6.05958 253.829 5.92359 253.233 5.92359C252.587 5.92359 252.022 6.08267 251.54 6.40085C251.063 6.71389 250.693 7.12444 250.431 7.6325C250.175 8.13542 250.046 8.68196 250.046 9.27213V10.6192C250.046 11.4095 250.185 12.0818 250.462 12.6361C250.744 13.1903 251.137 13.6137 251.64 13.9062C252.143 14.1936 252.73 14.3373 253.403 14.3373C253.839 14.3373 254.237 14.2757 254.596 14.1525C254.955 14.0242 255.266 13.8344 255.527 13.5829C255.789 13.3314 255.989 13.021 256.128 12.6515L258.306 13.044C258.132 13.6855 257.819 14.2475 257.367 14.7299C256.921 15.2071 256.359 15.5792 255.681 15.846C255.009 16.1078 254.242 16.2386 253.38 16.2386Z" fill="#474F59"/>
<path d="M261.006 16V4.17619H263.231V6.05445H263.354C263.569 5.4181 263.949 4.91774 264.493 4.55338C265.042 4.18388 265.663 3.99914 266.356 3.99914C266.5 3.99914 266.669 4.00427 266.864 4.01453C267.064 4.0248 267.221 4.03763 267.334 4.05302V6.25459C267.241 6.22893 267.077 6.20071 266.841 6.16992C266.605 6.13399 266.369 6.11603 266.133 6.11603C265.589 6.11603 265.104 6.2315 264.678 6.46243C264.257 6.68823 263.924 7.00384 263.677 7.40926C263.431 7.80955 263.308 8.26628 263.308 8.77947V16H261.006Z" fill="#474F59"/>
<path d="M272.661 16.2617C271.911 16.2617 271.234 16.1232 270.628 15.846C270.023 15.5638 269.543 15.1558 269.189 14.6221C268.84 14.0884 268.665 13.4341 268.665 12.6592C268.665 11.992 268.794 11.4429 269.05 11.0118C269.307 10.5808 269.653 10.2395 270.09 9.98802C270.526 9.73656 271.013 9.54668 271.552 9.41838C272.091 9.29009 272.64 9.19258 273.199 9.12587C273.908 9.04376 274.482 8.97704 274.924 8.92572C275.365 8.86927 275.686 8.77947 275.886 8.6563C276.086 8.53314 276.186 8.333 276.186 8.05587V8.00199C276.186 7.32972 275.996 6.80883 275.617 6.43934C275.242 6.06984 274.683 5.8851 273.938 5.8851C273.164 5.8851 272.553 6.05701 272.106 6.40085C271.665 6.73955 271.36 7.11674 271.19 7.53242L269.027 7.03977C269.284 6.32131 269.658 5.74141 270.151 5.30006C270.649 4.85359 271.221 4.53029 271.868 4.33014C272.514 4.12487 273.194 4.02223 273.908 4.02223C274.38 4.02223 274.88 4.07868 275.409 4.19158C275.942 4.29935 276.44 4.49949 276.902 4.79201C277.369 5.08453 277.751 5.50277 278.049 6.04675C278.347 6.5856 278.496 7.2861 278.496 8.14825V16H276.248V14.3835H276.155C276.007 14.6811 275.783 14.9736 275.486 15.261C275.188 15.5484 274.806 15.787 274.339 15.9769C273.872 16.1668 273.312 16.2617 272.661 16.2617ZM273.161 14.4143C273.797 14.4143 274.341 14.2885 274.793 14.0371C275.25 13.7856 275.596 13.4572 275.832 13.0517C276.073 12.6412 276.194 12.2024 276.194 11.7354V10.2113C276.112 10.2934 275.953 10.3703 275.717 10.4422C275.486 10.5089 275.221 10.5679 274.924 10.6192C274.626 10.6654 274.336 10.709 274.054 10.7501C273.772 10.786 273.536 10.8168 273.346 10.8425C272.899 10.8989 272.491 10.9939 272.122 11.1273C271.757 11.2607 271.465 11.4532 271.244 11.7046C271.029 11.951 270.921 12.2794 270.921 12.6899C270.921 13.2596 271.131 13.6907 271.552 13.9832C271.973 14.2706 272.509 14.4143 273.161 14.4143Z" fill="#474F59"/>
<path d="M286.519 20.6803C285.579 20.6803 284.771 20.5571 284.094 20.3108C283.421 20.0644 282.872 19.7386 282.446 19.3331C282.02 18.9277 281.702 18.4838 281.492 18.0014L283.47 17.1855C283.609 17.4113 283.794 17.6499 284.024 17.9014C284.261 18.1579 284.579 18.376 284.979 18.5557C285.384 18.7353 285.905 18.8251 286.542 18.8251C287.414 18.8251 288.135 18.6121 288.705 18.1862C289.274 17.7654 289.559 17.0931 289.559 16.1693V13.8446H289.413C289.274 14.0961 289.074 14.3758 288.812 14.6837C288.556 14.9916 288.202 15.2584 287.75 15.4842C287.299 15.71 286.711 15.8229 285.987 15.8229C285.053 15.8229 284.212 15.6048 283.463 15.1686C282.718 14.7273 282.128 14.0781 281.692 13.2211C281.261 12.3589 281.045 11.2992 281.045 10.0419C281.045 8.7846 281.258 7.70691 281.684 6.80883C282.115 5.91076 282.706 5.22309 283.455 4.74582C284.204 4.26343 285.053 4.02223 286.003 4.02223C286.737 4.02223 287.329 4.1454 287.781 4.39173C288.233 4.63292 288.584 4.91517 288.836 5.23848C289.092 5.56179 289.29 5.84661 289.428 6.09294H289.598V4.17619H291.853V16.2617C291.853 17.2778 291.617 18.1118 291.145 18.7635C290.673 19.4153 290.034 19.8976 289.228 20.2107C288.428 20.5237 287.524 20.6803 286.519 20.6803ZM286.495 13.9139C287.157 13.9139 287.717 13.7599 288.174 13.452C288.635 13.139 288.984 12.6925 289.22 12.1126C289.462 11.5276 289.582 10.8271 289.582 10.0111C289.582 9.21568 289.464 8.51518 289.228 7.90962C288.992 7.30406 288.646 6.83193 288.189 6.49322C287.732 6.14939 287.168 5.97747 286.495 5.97747C285.803 5.97747 285.225 6.15709 284.763 6.51632C284.302 6.87041 283.953 7.35281 283.717 7.9635C283.486 8.57419 283.37 9.25673 283.37 10.0111C283.37 10.786 283.488 11.466 283.724 12.051C283.96 12.6361 284.309 13.0928 284.771 13.4212C285.238 13.7497 285.813 13.9139 286.495 13.9139Z" fill="#474F59"/>
<path d="M300.036 16.2386C298.871 16.2386 297.868 15.9897 297.026 15.4919C296.19 14.989 295.543 14.2834 295.086 13.375C294.635 12.4616 294.409 11.3916 294.409 10.1651C294.409 8.95395 294.635 7.88652 295.086 6.96279C295.543 6.03905 296.179 5.31803 296.995 4.79971C297.816 4.28139 298.776 4.02223 299.874 4.02223C300.541 4.02223 301.188 4.13257 301.814 4.35324C302.44 4.57391 303.002 4.92031 303.5 5.39244C303.998 5.86457 304.39 6.47783 304.678 7.23221C304.965 7.98146 305.109 8.89237 305.109 9.96493V10.7809H295.71V9.05659H302.853C302.853 8.45103 302.73 7.91475 302.484 7.44775C302.237 6.97562 301.891 6.60356 301.445 6.33157C301.003 6.05958 300.485 5.92359 299.89 5.92359C299.243 5.92359 298.678 6.08267 298.196 6.40085C297.719 6.71389 297.349 7.12444 297.088 7.6325C296.831 8.13542 296.703 8.68196 296.703 9.27213V10.6192C296.703 11.4095 296.841 12.0818 297.118 12.6361C297.401 13.1903 297.793 13.6137 298.296 13.9062C298.799 14.1936 299.387 14.3373 300.059 14.3373C300.495 14.3373 300.893 14.2757 301.252 14.1525C301.611 14.0242 301.922 13.8344 302.184 13.5829C302.445 13.3314 302.645 13.021 302.784 12.6515L304.962 13.044C304.788 13.6855 304.475 14.2475 304.023 14.7299C303.577 15.2071 303.015 15.5792 302.338 15.846C301.665 16.1078 300.898 16.2386 300.036 16.2386Z" fill="#474F59"/>
<path d="M309.964 8.97961V16H307.662V4.17619H309.872V6.10064H310.018C310.29 5.47455 310.716 4.97163 311.296 4.59187C311.881 4.21211 312.617 4.02223 313.505 4.02223C314.311 4.02223 315.016 4.19158 315.622 4.53029C316.228 4.86386 316.697 5.36165 317.031 6.02366C317.364 6.68567 317.531 7.5042 317.531 8.47925V16H315.229V8.75637C315.229 7.89935 315.006 7.22965 314.56 6.74725C314.113 6.25972 313.5 6.01596 312.72 6.01596C312.186 6.01596 311.712 6.13143 311.296 6.36236C310.885 6.59329 310.559 6.932 310.318 7.37847C310.082 7.81981 309.964 8.35352 309.964 8.97961Z" fill="#474F59"/>
<path d="M325.598 16.2386C324.454 16.2386 323.469 15.9795 322.642 15.4612C321.821 14.9377 321.19 14.2167 320.749 13.2981C320.307 12.3795 320.087 11.3274 320.087 10.142C320.087 8.94112 320.312 7.88139 320.764 6.96279C321.216 6.03905 321.852 5.31803 322.673 4.79971C323.494 4.28139 324.462 4.02223 325.575 4.02223C326.473 4.02223 327.274 4.18902 327.977 4.52259C328.68 4.85103 329.247 5.31289 329.678 5.90819C330.114 6.50349 330.374 7.19885 330.456 7.99429H328.216C328.092 7.44005 327.81 6.96279 327.369 6.5625C326.933 6.16222 326.348 5.96208 325.614 5.96208C324.972 5.96208 324.41 6.13143 323.928 6.47013C323.451 6.8037 323.079 7.28096 322.812 7.90192C322.545 8.51774 322.411 9.24647 322.411 10.0881C322.411 10.9502 322.542 11.6944 322.804 12.3205C323.066 12.9465 323.435 13.4315 323.912 13.7753C324.395 14.1192 324.962 14.2911 325.614 14.2911C326.05 14.2911 326.445 14.2115 326.799 14.0525C327.158 13.8882 327.459 13.6547 327.7 13.352C327.946 13.0492 328.118 12.6848 328.216 12.2589H330.456C330.374 13.0235 330.125 13.7061 329.709 14.3065C329.293 14.9069 328.736 15.379 328.039 15.7229C327.346 16.0667 326.532 16.2386 325.598 16.2386Z" fill="#474F59"/>
<path d="M334.372 20.4339C334.028 20.4339 333.715 20.4057 333.433 20.3492C333.15 20.2979 332.94 20.2415 332.802 20.1799L333.356 18.2939C333.777 18.4068 334.151 18.4556 334.48 18.4402C334.808 18.4248 335.098 18.3016 335.349 18.0707C335.606 17.8398 335.832 17.4626 336.027 16.9391L336.312 16.154L331.986 4.17619H334.449L337.443 13.352H337.566L340.561 4.17619H343.032L338.159 17.578C337.933 18.1939 337.646 18.7148 337.297 19.1407C336.948 19.5718 336.532 19.8951 336.05 20.1106C335.568 20.3262 335.008 20.4339 334.372 20.4339Z" fill="#474F59"/>
<path d="M351.117 16V0.234917H356.736C357.957 0.234917 358.971 0.445323 359.777 0.866136C360.587 1.28695 361.193 1.86941 361.593 2.61353C361.993 3.35252 362.194 4.20698 362.194 5.1769C362.194 6.14169 361.991 6.99101 361.585 7.72487C361.185 8.45359 360.58 9.02066 359.769 9.42608C358.963 9.8315 357.95 10.0342 356.728 10.0342H352.471V7.98659H356.513C357.282 7.98659 357.909 7.87626 358.391 7.65559C358.878 7.43492 359.235 7.11418 359.461 6.69337C359.687 6.27255 359.8 5.76706 359.8 5.1769C359.8 4.5816 359.684 4.06585 359.453 3.62964C359.227 3.19343 358.871 2.85986 358.383 2.62893C357.901 2.39286 357.267 2.27483 356.482 2.27483H353.495V16H351.117ZM358.899 8.88724L362.794 16H360.084L356.266 8.88724H358.899Z" fill="#474F59"/>
<path d="M369.851 16.2386C368.686 16.2386 367.683 15.9897 366.841 15.4919C366.005 14.989 365.358 14.2834 364.901 13.375C364.45 12.4616 364.224 11.3916 364.224 10.1651C364.224 8.95395 364.45 7.88652 364.901 6.96279C365.358 6.03905 365.994 5.31803 366.81 4.79971C367.631 4.28139 368.591 4.02223 369.689 4.02223C370.356 4.02223 371.003 4.13257 371.629 4.35324C372.255 4.57391 372.817 4.92031 373.315 5.39244C373.813 5.86457 374.205 6.47783 374.493 7.23221C374.78 7.98146 374.924 8.89237 374.924 9.96493V10.7809H365.525V9.05659H372.668C372.668 8.45103 372.545 7.91475 372.299 7.44775C372.053 6.97562 371.706 6.60356 371.26 6.33157C370.818 6.05958 370.3 5.92359 369.705 5.92359C369.058 5.92359 368.494 6.08267 368.011 6.40085C367.534 6.71389 367.164 7.12444 366.903 7.6325C366.646 8.13542 366.518 8.68196 366.518 9.27213V10.6192C366.518 11.4095 366.656 12.0818 366.934 12.6361C367.216 13.1903 367.608 13.6137 368.111 13.9062C368.614 14.1936 369.202 14.3373 369.874 14.3373C370.31 14.3373 370.708 14.2757 371.067 14.1525C371.426 14.0242 371.737 13.8344 371.999 13.5829C372.26 13.3314 372.461 13.021 372.599 12.6515L374.778 13.044C374.603 13.6855 374.29 14.2475 373.838 14.7299C373.392 15.2071 372.83 15.5792 372.153 15.846C371.48 16.1078 370.713 16.2386 369.851 16.2386Z" fill="#474F59"/>
<path d="M382.435 20.6803C381.496 20.6803 380.688 20.5571 380.01 20.3108C379.338 20.0644 378.789 19.7386 378.363 19.3331C377.937 18.9277 377.619 18.4838 377.408 18.0014L379.387 17.1855C379.525 17.4113 379.71 17.6499 379.941 17.9014C380.177 18.1579 380.495 18.376 380.895 18.5557C381.301 18.7353 381.822 18.8251 382.458 18.8251C383.33 18.8251 384.051 18.6121 384.621 18.1862C385.191 17.7654 385.476 17.0931 385.476 16.1693V13.8446H385.329C385.191 14.0961 384.991 14.3758 384.729 14.6837C384.472 14.9916 384.118 15.2584 383.667 15.4842C383.215 15.71 382.627 15.8229 381.904 15.8229C380.97 15.8229 380.128 15.6048 379.379 15.1686C378.635 14.7273 378.045 14.0781 377.608 13.2211C377.177 12.3589 376.962 11.2992 376.962 10.0419C376.962 8.7846 377.175 7.70691 377.601 6.80883C378.032 5.91076 378.622 5.22309 379.371 4.74582C380.12 4.26343 380.97 4.02223 381.919 4.02223C382.653 4.02223 383.246 4.1454 383.697 4.39173C384.149 4.63292 384.501 4.91517 384.752 5.23848C385.009 5.56179 385.206 5.84661 385.345 6.09294H385.514V4.17619H387.77V16.2617C387.77 17.2778 387.533 18.1118 387.061 18.7635C386.589 19.4153 385.95 19.8976 385.145 20.2107C384.344 20.5237 383.441 20.6803 382.435 20.6803ZM382.412 13.9139C383.074 13.9139 383.633 13.7599 384.09 13.452C384.552 13.139 384.901 12.6925 385.137 12.1126C385.378 11.5276 385.499 10.8271 385.499 10.0111C385.499 9.21568 385.381 8.51518 385.145 7.90962C384.909 7.30406 384.562 6.83193 384.105 6.49322C383.649 6.14939 383.084 5.97747 382.412 5.97747C381.719 5.97747 381.142 6.15709 380.68 6.51632C380.218 6.87041 379.869 7.35281 379.633 7.9635C379.402 8.57419 379.287 9.25673 379.287 10.0111C379.287 10.786 379.405 11.466 379.641 12.051C379.877 12.6361 380.226 13.0928 380.688 13.4212C381.155 13.7497 381.729 13.9139 382.412 13.9139Z" fill="#474F59"/>
<path d="M398.346 11.0965V4.17619H400.656V16H398.392V13.9524H398.269C397.997 14.5836 397.561 15.1096 396.961 15.5304C396.365 15.9461 395.624 16.154 394.736 16.154C393.977 16.154 393.304 15.9872 392.719 15.6536C392.139 15.3149 391.683 14.8145 391.349 14.1525C391.021 13.4905 390.856 12.672 390.856 11.6969V4.17619H393.158V11.4198C393.158 12.2255 393.381 12.867 393.828 13.3443C394.274 13.8215 394.854 14.0602 395.567 14.0602C395.998 14.0602 396.427 13.9524 396.853 13.7368C397.284 13.5213 397.641 13.1954 397.923 12.7592C398.21 12.323 398.351 11.7688 398.346 11.0965Z" fill="#474F59"/>
<path d="M406.05 0.234917V16H403.748V0.234917H406.05Z" fill="#474F59"/>
<path d="M412.587 16.2617C411.838 16.2617 411.161 16.1232 410.555 15.846C409.949 15.5638 409.47 15.1558 409.116 14.6221C408.767 14.0884 408.592 13.4341 408.592 12.6592C408.592 11.992 408.72 11.4429 408.977 11.0118C409.234 10.5808 409.58 10.2395 410.016 9.98802C410.452 9.73656 410.94 9.54668 411.479 9.41838C412.018 9.29009 412.567 9.19258 413.126 9.12587C413.834 9.04376 414.409 8.97704 414.85 8.92572C415.292 8.86927 415.612 8.77947 415.813 8.6563C416.013 8.53314 416.113 8.333 416.113 8.05587V8.00199C416.113 7.32972 415.923 6.80883 415.543 6.43934C415.169 6.06984 414.609 5.8851 413.865 5.8851C413.09 5.8851 412.479 6.05701 412.033 6.40085C411.592 6.73955 411.286 7.11674 411.117 7.53242L408.954 7.03977C409.21 6.32131 409.585 5.74141 410.078 5.30006C410.576 4.85359 411.148 4.53029 411.794 4.33014C412.441 4.12487 413.121 4.02223 413.834 4.02223C414.306 4.02223 414.807 4.07868 415.335 4.19158C415.869 4.29935 416.367 4.49949 416.829 4.79201C417.296 5.08453 417.678 5.50277 417.976 6.04675C418.273 6.5856 418.422 7.2861 418.422 8.14825V16H416.174V14.3835H416.082C415.933 14.6811 415.71 14.9736 415.412 15.261C415.115 15.5484 414.732 15.787 414.265 15.9769C413.798 16.1668 413.239 16.2617 412.587 16.2617ZM413.088 14.4143C413.724 14.4143 414.268 14.2885 414.719 14.0371C415.176 13.7856 415.523 13.4572 415.759 13.0517C416 12.6412 416.12 12.2024 416.12 11.7354V10.2113C416.038 10.2934 415.879 10.3703 415.643 10.4422C415.412 10.5089 415.148 10.5679 414.85 10.6192C414.553 10.6654 414.263 10.709 413.981 10.7501C413.698 10.786 413.462 10.8168 413.272 10.8425C412.826 10.8989 412.418 10.9939 412.048 11.1273C411.684 11.2607 411.391 11.4532 411.171 11.7046C410.955 11.951 410.848 12.2794 410.848 12.6899C410.848 13.2596 411.058 13.6907 411.479 13.9832C411.9 14.2706 412.436 14.4143 413.088 14.4143Z" fill="#474F59"/>
<path d="M427.007 4.17619V6.02366H420.549V4.17619H427.007ZM422.281 1.3434H424.582V12.5283C424.582 12.9748 424.649 13.3109 424.782 13.5367C424.916 13.7574 425.088 13.9088 425.298 13.9909C425.514 14.0679 425.747 14.1063 425.999 14.1063C426.183 14.1063 426.345 14.0935 426.484 14.0679C426.622 14.0422 426.73 14.0217 426.807 14.0063L427.223 15.9076C427.089 15.9589 426.899 16.0103 426.653 16.0616C426.407 16.118 426.099 16.1488 425.729 16.154C425.124 16.1642 424.559 16.0564 424.036 15.8306C423.512 15.6048 423.089 15.2559 422.766 14.7837C422.442 14.3116 422.281 13.7189 422.281 13.0056V1.3434Z" fill="#474F59"/>
<path d="M434.407 16.2386C433.298 16.2386 432.331 15.9846 431.505 15.4765C430.678 14.9685 430.037 14.2577 429.58 13.3443C429.123 12.4308 428.895 11.3634 428.895 10.142C428.895 8.91546 429.123 7.8429 429.58 6.9243C430.037 6.0057 430.678 5.29237 431.505 4.78431C432.331 4.27626 433.298 4.02223 434.407 4.02223C435.515 4.02223 436.482 4.27626 437.309 4.78431C438.135 5.29237 438.776 6.0057 439.233 6.9243C439.69 7.8429 439.918 8.91546 439.918 10.142C439.918 11.3634 439.69 12.4308 439.233 13.3443C438.776 14.2577 438.135 14.9685 437.309 15.4765C436.482 15.9846 435.515 16.2386 434.407 16.2386ZM434.414 14.3065C435.133 14.3065 435.728 14.1166 436.2 13.7368C436.672 13.3571 437.021 12.8516 437.247 12.2204C437.478 11.5892 437.594 10.8938 437.594 10.1343C437.594 9.3799 437.478 8.68709 437.247 8.05587C437.021 7.41952 436.672 6.9089 436.2 6.52401C435.728 6.13912 435.133 5.94668 434.414 5.94668C433.691 5.94668 433.09 6.13912 432.613 6.52401C432.141 6.9089 431.789 7.41952 431.558 8.05587C431.333 8.68709 431.22 9.3799 431.22 10.1343C431.22 10.8938 431.333 11.5892 431.558 12.2204C431.789 12.8516 432.141 13.3571 432.613 13.7368C433.09 14.1166 433.691 14.3065 434.414 14.3065Z" fill="#474F59"/>
<path d="M442.487 16V4.17619H444.712V6.05445H444.835C445.051 5.4181 445.43 4.91774 445.974 4.55338C446.524 4.18388 447.145 3.99914 447.837 3.99914C447.981 3.99914 448.15 4.00427 448.345 4.01453C448.546 4.0248 448.702 4.03763 448.815 4.05302V6.25459C448.723 6.22893 448.558 6.20071 448.322 6.16992C448.086 6.13399 447.85 6.11603 447.614 6.11603C447.07 6.11603 446.585 6.2315 446.159 6.46243C445.738 6.68823 445.405 7.00384 445.158 7.40926C444.912 7.80955 444.789 8.26628 444.789 8.77947V16H442.487Z" fill="#474F59"/>
<path d="M452.622 20.4339C452.278 20.4339 451.965 20.4057 451.682 20.3492C451.4 20.2979 451.19 20.2415 451.051 20.1799L451.605 18.2939C452.026 18.4068 452.401 18.4556 452.729 18.4402C453.058 18.4248 453.348 18.3016 453.599 18.0707C453.856 17.8398 454.082 17.4626 454.277 16.9391L454.561 16.154L450.235 4.17619H452.698L455.693 13.352H455.816L458.811 4.17619H461.282L456.409 17.578C456.183 18.1939 455.896 18.7148 455.547 19.1407C455.198 19.5718 454.782 19.8951 454.3 20.1106C453.817 20.3262 453.258 20.4339 452.622 20.4339Z" fill="#474F59"/>
<path d="M224.111 32.2349V48H221.732V32.2349H224.111Z" fill="#474F59"/>
<path d="M229.692 40.9796V48H227.39V36.1762H229.599V38.1006H229.745C230.017 37.4746 230.443 36.9716 231.023 36.5919C231.608 36.2121 232.345 36.0222 233.232 36.0222C234.038 36.0222 234.744 36.1916 235.349 36.5303C235.955 36.8639 236.425 37.3617 236.758 38.0237C237.092 38.6857 237.258 39.5042 237.258 40.4793V48H234.957V40.7564C234.957 39.8994 234.734 39.2297 234.287 38.7473C233.841 38.2597 233.227 38.016 232.447 38.016C231.914 38.016 231.439 38.1314 231.023 38.3624C230.613 38.5933 230.287 38.932 230.046 39.3785C229.81 39.8198 229.692 40.3535 229.692 40.9796Z" fill="#474F59"/>
<path d="M245.972 36.1762V38.0237H239.291V36.1762H245.972ZM241.123 48V34.806C241.123 34.067 241.284 33.4537 241.608 32.9662C241.931 32.4736 242.36 32.1066 242.893 31.8654C243.427 31.6191 244.007 31.4959 244.633 31.4959C245.095 31.4959 245.49 31.5344 245.818 31.6114C246.147 31.6832 246.391 31.75 246.55 31.8115L246.011 33.6744C245.903 33.6436 245.765 33.6077 245.595 33.5666C245.426 33.5205 245.221 33.4974 244.979 33.4974C244.42 33.4974 244.02 33.6359 243.778 33.913C243.542 34.1902 243.424 34.5904 243.424 35.1139V48H241.123Z" fill="#474F59"/>
<path d="M252.862 48.2386C251.753 48.2386 250.786 47.9846 249.96 47.4766C249.134 46.9685 248.492 46.2577 248.035 45.3443C247.579 44.4308 247.35 43.3634 247.35 42.142C247.35 40.9155 247.579 39.8429 248.035 38.9243C248.492 38.0057 249.134 37.2924 249.96 36.7843C250.786 36.2763 251.753 36.0222 252.862 36.0222C253.97 36.0222 254.938 36.2763 255.764 36.7843C256.59 37.2924 257.232 38.0057 257.688 38.9243C258.145 39.8429 258.373 40.9155 258.373 42.142C258.373 43.3634 258.145 44.4308 257.688 45.3443C257.232 46.2577 256.59 46.9685 255.764 47.4766C254.938 47.9846 253.97 48.2386 252.862 48.2386ZM252.87 46.3065C253.588 46.3065 254.183 46.1166 254.655 45.7369C255.128 45.3571 255.477 44.8516 255.702 44.2204C255.933 43.5892 256.049 42.8938 256.049 42.1343C256.049 41.3799 255.933 40.6871 255.702 40.0559C255.477 39.4195 255.128 38.9089 254.655 38.524C254.183 38.1391 253.588 37.9467 252.87 37.9467C252.146 37.9467 251.546 38.1391 251.068 38.524C250.596 38.9089 250.245 39.4195 250.014 40.0559C249.788 40.6871 249.675 41.3799 249.675 42.1343C249.675 42.8938 249.788 43.5892 250.014 44.2204C250.245 44.8516 250.596 45.3571 251.068 45.7369C251.546 46.1166 252.146 46.3065 252.87 46.3065Z" fill="#474F59"/>
<path d="M260.943 48V36.1762H263.167V38.0545H263.29C263.506 37.4181 263.886 36.9177 264.43 36.5534C264.979 36.1839 265.6 35.9991 266.293 35.9991C266.436 35.9991 266.606 36.0043 266.801 36.0145C267.001 36.0248 267.157 36.0376 267.27 36.053V38.2546C267.178 38.2289 267.014 38.2007 266.778 38.1699C266.541 38.134 266.305 38.116 266.069 38.116C265.525 38.116 265.04 38.2315 264.614 38.4624C264.194 38.6882 263.86 39.0038 263.614 39.4093C263.367 39.8096 263.244 40.2663 263.244 40.7795V48H260.943Z" fill="#474F59"/>
<path d="M269.262 48V36.1762H271.471V38.1006H271.618C271.864 37.4489 272.267 36.9408 272.826 36.5765C273.385 36.207 274.055 36.0222 274.835 36.0222C275.626 36.0222 276.288 36.207 276.821 36.5765C277.36 36.946 277.758 37.454 278.014 38.1006H278.138C278.42 37.4694 278.869 36.9665 279.485 36.5919C280.101 36.2121 280.834 36.0222 281.686 36.0222C282.759 36.0222 283.634 36.3584 284.311 37.0306C284.994 37.7029 285.335 38.7165 285.335 40.0713V48H283.033V40.2868C283.033 39.4862 282.815 38.9063 282.379 38.5471C281.943 38.1879 281.422 38.0083 280.816 38.0083C280.067 38.0083 279.485 38.2392 279.069 38.7011C278.653 39.1578 278.445 39.7454 278.445 40.4639V48H276.152V40.1406C276.152 39.4991 275.951 38.9833 275.551 38.5933C275.151 38.2033 274.63 38.0083 273.988 38.0083C273.552 38.0083 273.149 38.1237 272.78 38.3547C272.416 38.5805 272.12 38.8961 271.895 39.3015C271.674 39.7069 271.564 40.1765 271.564 40.7102V48H269.262Z" fill="#474F59"/>
<path d="M291.861 48.2617C291.112 48.2617 290.434 48.1232 289.829 47.846C289.223 47.5638 288.743 47.1558 288.389 46.6221C288.04 46.0884 287.866 45.4341 287.866 44.6592C287.866 43.992 287.994 43.4429 288.251 43.0118C288.507 42.5808 288.854 42.2395 289.29 41.988C289.726 41.7366 290.213 41.5467 290.752 41.4184C291.291 41.2901 291.84 41.1926 292.4 41.1259C293.108 41.0438 293.683 40.977 294.124 40.9257C294.565 40.8693 294.886 40.7795 295.086 40.6563C295.286 40.5331 295.386 40.333 295.386 40.0559V40.002C295.386 39.3297 295.197 38.8088 294.817 38.4393C294.442 38.0698 293.883 37.8851 293.139 37.8851C292.364 37.8851 291.753 38.057 291.307 38.4009C290.865 38.7396 290.56 39.1167 290.391 39.5324L288.227 39.0398C288.484 38.3213 288.859 37.7414 289.351 37.3001C289.849 36.8536 290.421 36.5303 291.068 36.3301C291.715 36.1249 292.395 36.0222 293.108 36.0222C293.58 36.0222 294.08 36.0787 294.609 36.1916C295.143 36.2994 295.64 36.4995 296.102 36.792C296.569 37.0845 296.952 37.5028 297.249 38.0468C297.547 38.5856 297.696 39.2861 297.696 40.1483V48H295.448V46.3835H295.356C295.207 46.6811 294.984 46.9736 294.686 47.261C294.388 47.5484 294.006 47.787 293.539 47.9769C293.072 48.1668 292.513 48.2617 291.861 48.2617ZM292.361 46.4143C292.998 46.4143 293.541 46.2885 293.993 46.0371C294.45 45.7856 294.796 45.4572 295.032 45.0517C295.273 44.6412 295.394 44.2024 295.394 43.7354V42.2113C295.312 42.2934 295.153 42.3703 294.917 42.4422C294.686 42.5089 294.422 42.5679 294.124 42.6192C293.826 42.6654 293.536 42.7091 293.254 42.7501C292.972 42.786 292.736 42.8168 292.546 42.8425C292.099 42.8989 291.691 42.9939 291.322 43.1273C290.958 43.2607 290.665 43.4532 290.444 43.7046C290.229 43.951 290.121 44.2794 290.121 44.69C290.121 45.2596 290.332 45.6907 290.752 45.9832C291.173 46.2706 291.709 46.4143 292.361 46.4143Z" fill="#474F59"/>
<path d="M306.281 36.1762V38.0237H299.822V36.1762H306.281ZM301.554 33.3434H303.856V44.5283C303.856 44.9748 303.923 45.3109 304.056 45.5367C304.189 45.7574 304.361 45.9088 304.572 45.9909C304.787 46.0679 305.021 46.1063 305.272 46.1063C305.457 46.1063 305.619 46.0935 305.757 46.0679C305.896 46.0422 306.004 46.0217 306.081 46.0063L306.496 47.9076C306.363 47.9589 306.173 48.0103 305.927 48.0616C305.68 48.118 305.372 48.1488 305.003 48.154C304.397 48.1642 303.833 48.0565 303.309 47.8307C302.786 47.6048 302.363 47.2559 302.039 46.7838C301.716 46.3116 301.554 45.7189 301.554 45.0056V33.3434Z" fill="#474F59"/>
<path d="M308.827 48V36.1762H311.128V48H308.827ZM309.989 34.3518C309.589 34.3518 309.245 34.2184 308.958 33.9515C308.675 33.6795 308.534 33.3562 308.534 32.9816C308.534 32.6019 308.675 32.2785 308.958 32.0117C309.245 31.7397 309.589 31.6037 309.989 31.6037C310.389 31.6037 310.731 31.7397 311.013 32.0117C311.3 32.2785 311.444 32.6019 311.444 32.9816C311.444 33.3562 311.3 33.6795 311.013 33.9515C310.731 34.2184 310.389 34.3518 309.989 34.3518Z" fill="#474F59"/>
<path d="M319.205 48.2386C318.097 48.2386 317.129 47.9846 316.303 47.4766C315.477 46.9685 314.836 46.2577 314.379 45.3443C313.922 44.4308 313.694 43.3634 313.694 42.142C313.694 40.9155 313.922 39.8429 314.379 38.9243C314.836 38.0057 315.477 37.2924 316.303 36.7843C317.129 36.2763 318.097 36.0222 319.205 36.0222C320.314 36.0222 321.281 36.2763 322.107 36.7843C322.934 37.2924 323.575 38.0057 324.032 38.9243C324.489 39.8429 324.717 40.9155 324.717 42.142C324.717 43.3634 324.489 44.4308 324.032 45.3443C323.575 46.2577 322.934 46.9685 322.107 47.4766C321.281 47.9846 320.314 48.2386 319.205 48.2386ZM319.213 46.3065C319.931 46.3065 320.527 46.1166 320.999 45.7369C321.471 45.3571 321.82 44.8516 322.046 44.2204C322.277 43.5892 322.392 42.8938 322.392 42.1343C322.392 41.3799 322.277 40.6871 322.046 40.0559C321.82 39.4195 321.471 38.9089 320.999 38.524C320.527 38.1391 319.931 37.9467 319.213 37.9467C318.489 37.9467 317.889 38.1391 317.412 38.524C316.94 38.9089 316.588 39.4195 316.357 40.0559C316.131 40.6871 316.018 41.3799 316.018 42.1343C316.018 42.8938 316.131 43.5892 316.357 44.2204C316.588 44.8516 316.94 45.3571 317.412 45.7369C317.889 46.1166 318.489 46.3065 319.213 46.3065Z" fill="#474F59"/>
<path d="M329.588 40.9796V48H327.286V36.1762H329.495V38.1006H329.642C329.914 37.4746 330.34 36.9716 330.919 36.5919C331.504 36.2121 332.241 36.0222 333.129 36.0222C333.934 36.0222 334.64 36.1916 335.246 36.5303C335.851 36.8639 336.321 37.3617 336.654 38.0237C336.988 38.6857 337.155 39.5042 337.155 40.4793V48H334.853V40.7564C334.853 39.8994 334.63 39.2297 334.183 38.7473C333.737 38.2597 333.124 38.016 332.344 38.016C331.81 38.016 331.335 38.1314 330.919 38.3624C330.509 38.5933 330.183 38.932 329.942 39.3785C329.706 39.8198 329.588 40.3535 329.588 40.9796Z" fill="#474F59"/>
<path d="M354.761 36.3763C354.679 35.6476 354.341 35.0831 353.745 34.6828C353.15 34.2774 352.401 34.0747 351.498 34.0747C350.851 34.0747 350.292 34.1773 349.819 34.3826C349.347 34.5827 348.98 34.8599 348.719 35.214C348.462 35.5629 348.334 35.9607 348.334 36.4071C348.334 36.7818 348.421 37.1051 348.595 37.377C348.775 37.649 349.009 37.8774 349.296 38.0622C349.588 38.2418 349.902 38.3932 350.235 38.5163C350.569 38.6344 350.889 38.7319 351.197 38.8088L352.737 39.2091C353.24 39.3323 353.756 39.4991 354.284 39.7095C354.813 39.9199 355.303 40.197 355.754 40.5408C356.206 40.8847 356.57 41.3106 356.847 41.8187C357.13 42.3267 357.271 42.9349 357.271 43.6431C357.271 44.536 357.04 45.3289 356.578 46.0217C356.121 46.7145 355.457 47.261 354.584 47.6613C353.717 48.0616 352.668 48.2617 351.436 48.2617C350.256 48.2617 349.234 48.0744 348.372 47.6998C347.51 47.3252 346.835 46.794 346.348 46.1063C345.86 45.4135 345.591 44.5924 345.539 43.6431H347.926C347.972 44.2127 348.157 44.6874 348.48 45.0671C348.808 45.4418 349.227 45.7215 349.735 45.9062C350.248 46.0858 350.81 46.1756 351.421 46.1756C352.093 46.1756 352.691 46.0704 353.214 45.86C353.743 45.6445 354.158 45.3468 354.461 44.9671C354.764 44.5822 354.915 44.1331 354.915 43.62C354.915 43.153 354.782 42.7706 354.515 42.473C354.253 42.1753 353.897 41.929 353.445 41.734C352.999 41.539 352.493 41.3671 351.929 41.2182L350.066 40.7102C348.803 40.3664 347.803 39.8609 347.064 39.1937C346.33 38.5266 345.963 37.6439 345.963 36.5457C345.963 35.6373 346.209 34.8445 346.702 34.1671C347.194 33.4897 347.862 32.9636 348.703 32.589C349.545 32.2093 350.494 32.0194 351.551 32.0194C352.619 32.0194 353.561 32.2067 354.376 32.5813C355.198 32.9559 355.844 33.4717 356.316 34.1286C356.788 34.7803 357.035 35.5296 357.055 36.3763H354.761Z" fill="#474F59"/>
<path d="M361.383 52.4339C361.04 52.4339 360.727 52.4057 360.444 52.3493C360.162 52.2979 359.952 52.2415 359.813 52.1799L360.367 50.2939C360.788 50.4068 361.163 50.4556 361.491 50.4402C361.82 50.4248 362.11 50.3016 362.361 50.0707C362.618 49.8398 362.843 49.4626 363.038 48.9391L363.323 48.154L358.997 36.1762H361.46L364.455 45.352H364.578L367.572 36.1762H370.043L365.171 49.578C364.945 50.1939 364.658 50.7148 364.309 51.1407C363.96 51.5718 363.544 51.8951 363.062 52.1106C362.579 52.3262 362.02 52.4339 361.383 52.4339Z" fill="#474F59"/>
<path d="M381.067 39.0629L378.981 39.4324C378.893 39.1655 378.755 38.9115 378.565 38.6703C378.38 38.4291 378.129 38.2315 377.811 38.0775C377.492 37.9236 377.095 37.8466 376.617 37.8466C375.966 37.8466 375.422 37.9929 374.985 38.2854C374.549 38.5728 374.331 38.9448 374.331 39.4016C374.331 39.7967 374.477 40.1149 374.77 40.3561C375.062 40.5973 375.535 40.7949 376.186 40.9488L378.065 41.3799C379.152 41.6314 379.963 42.0188 380.497 42.5423C381.031 43.0657 381.298 43.7457 381.298 44.5822C381.298 45.2904 381.092 45.9216 380.682 46.4758C380.276 47.0249 379.709 47.456 378.981 47.7691C378.257 48.0821 377.418 48.2386 376.463 48.2386C375.139 48.2386 374.059 47.9564 373.223 47.3919C372.386 46.8222 371.873 46.014 371.683 44.9671L373.908 44.6284C374.046 45.2083 374.331 45.647 374.762 45.9447C375.193 46.2372 375.755 46.3835 376.448 46.3835C377.202 46.3835 377.805 46.2269 378.257 45.9139C378.709 45.5957 378.934 45.2083 378.934 44.7515C378.934 44.382 378.796 44.0716 378.519 43.8201C378.247 43.5686 377.828 43.3788 377.264 43.2505L375.263 42.8117C374.159 42.5602 373.343 42.1599 372.815 41.6108C372.291 41.0617 372.029 40.3664 372.029 39.5247C372.029 38.8268 372.224 38.2161 372.615 37.6927C373.005 37.1692 373.543 36.7612 374.231 36.4687C374.919 36.1711 375.706 36.0222 376.594 36.0222C377.872 36.0222 378.878 36.2994 379.612 36.8536C380.346 37.4027 380.831 38.1391 381.067 39.0629Z" fill="#474F59"/>
<path d="M389.348 36.1762V38.0237H382.889V36.1762H389.348ZM384.621 33.3434H386.923V44.5283C386.923 44.9748 386.99 45.3109 387.123 45.5367C387.256 45.7574 387.428 45.9088 387.639 45.9909C387.854 46.0679 388.088 46.1063 388.339 46.1063C388.524 46.1063 388.686 46.0935 388.824 46.0679C388.963 46.0422 389.07 46.0217 389.147 46.0063L389.563 47.9076C389.43 47.9589 389.24 48.0103 388.993 48.0616C388.747 48.118 388.439 48.1488 388.07 48.154C387.464 48.1642 386.9 48.0565 386.376 47.8307C385.853 47.6048 385.429 47.2559 385.106 46.7838C384.783 46.3116 384.621 45.7189 384.621 45.0056V33.3434Z" fill="#474F59"/>
<path d="M396.863 48.2386C395.698 48.2386 394.694 47.9897 393.853 47.4919C393.016 46.989 392.37 46.2834 391.913 45.3751C391.461 44.4616 391.235 43.3916 391.235 42.1651C391.235 40.954 391.461 39.8865 391.913 38.9628C392.37 38.0391 393.006 37.318 393.822 36.7997C394.643 36.2814 395.603 36.0222 396.701 36.0222C397.368 36.0222 398.015 36.1326 398.641 36.3532C399.267 36.5739 399.829 36.9203 400.327 37.3924C400.824 37.8646 401.217 38.4778 401.504 39.2322C401.792 39.9815 401.935 40.8924 401.935 41.9649V42.7809H392.536V41.0566H399.68C399.68 40.451 399.557 39.9148 399.31 39.4478C399.064 38.9756 398.718 38.6036 398.271 38.3316C397.83 38.0596 397.312 37.9236 396.716 37.9236C396.07 37.9236 395.505 38.0827 395.023 38.4009C394.546 38.7139 394.176 39.1244 393.914 39.6325C393.658 40.1354 393.529 40.682 393.529 41.2721V42.6192C393.529 43.4096 393.668 44.0818 393.945 44.6361C394.227 45.1903 394.62 45.6137 395.123 45.9062C395.626 46.1936 396.213 46.3373 396.886 46.3373C397.322 46.3373 397.72 46.2757 398.079 46.1525C398.438 46.0242 398.749 45.8344 399.01 45.5829C399.272 45.3314 399.472 45.021 399.611 44.6515L401.789 45.0441C401.615 45.6855 401.302 46.2475 400.85 46.7299C400.404 47.2071 399.842 47.5792 399.164 47.846C398.492 48.1078 397.725 48.2386 396.863 48.2386Z" fill="#474F59"/>
<path d="M404.489 48V36.1762H406.698V38.1006H406.845C407.091 37.4489 407.494 36.9408 408.053 36.5765C408.613 36.207 409.282 36.0222 410.062 36.0222C410.853 36.0222 411.515 36.207 412.048 36.5765C412.587 36.946 412.985 37.454 413.242 38.1006H413.365C413.647 37.4694 414.096 36.9665 414.712 36.5919C415.328 36.2121 416.061 36.0222 416.913 36.0222C417.986 36.0222 418.861 36.3584 419.538 37.0306C420.221 37.7029 420.562 38.7165 420.562 40.0713V48H418.26V40.2868C418.26 39.4862 418.042 38.9063 417.606 38.5471C417.17 38.1879 416.649 38.0083 416.044 38.0083C415.294 38.0083 414.712 38.2392 414.296 38.7011C413.88 39.1578 413.673 39.7454 413.673 40.4639V48H411.379V40.1406C411.379 39.4991 411.179 38.9833 410.778 38.5933C410.378 38.2033 409.857 38.0083 409.216 38.0083C408.779 38.0083 408.377 38.1237 408.007 38.3547C407.643 38.5805 407.348 38.8961 407.122 39.3015C406.901 39.7069 406.791 40.1765 406.791 40.7102V48H404.489Z" fill="#474F59"/>
</svg>
